<svg t="1667964164281" class="icon" viewBox="0 0 1024 1024" version="1.1" xmlns="http://www.w3.org/2000/svg" p-id="3502" width="200" height="200"><path d="M810.666667 853.333333H213.333333c-23.466667 0-42.666667-19.2-42.666666-42.666666s19.2-42.666667 42.666666-42.666667h597.333334c23.466667 0 42.666667 19.2 42.666666 42.666667s-19.2 42.666667-42.666666 42.666666zM896 170.666667H128c-23.466667 0-42.666667 19.2-42.666667 42.666666v426.666667c0 23.466667 19.2 42.666667 42.666667 42.666667h768c23.466667 0 42.666667-19.2 42.666667-42.666667V213.333333c0-23.466667-19.2-42.666667-42.666667-42.666666z m-68.266667 185.6L544 554.666667c-14.933333 10.666667-34.133333 10.666667-49.066667 0l-138.666666-102.4-102.4 108.8c-17.066667 17.066667-42.666667 17.066667-59.733334 2.133333-17.066667-17.066667-17.066667-42.666667-2.133333-59.733333l128-136.533334c14.933333-14.933333 38.4-17.066667 55.466667-4.266666l145.066666 106.666666 260.266667-181.333333c19.2-12.8 46.933333-8.533333 59.733333 10.666667 12.8 17.066667 6.4 44.8-12.8 57.6z" fill="#297AFF" p-id="3503"></path></svg>
