<svg t="1667963971597" class="icon" viewBox="0 0 1024 1024" version="1.1" xmlns="http://www.w3.org/2000/svg" p-id="3215" width="200" height="200"><path d="M810.666667 128H213.333333c-46.933333 0-85.333333 38.4-85.333333 85.333333v597.333334c0 46.933333 38.4 85.333333 85.333333 85.333333h597.333334c46.933333 0 85.333333-38.4 85.333333-85.333333V213.333333c0-46.933333-38.4-85.333333-85.333333-85.333333z m0 640c0 23.466667-19.2 42.666667-42.666667 42.666667H256c-23.466667 0-42.666667-19.2-42.666667-42.666667V256c0-23.466667 19.2-42.666667 42.666667-42.666667h512c23.466667 0 42.666667 19.2 42.666667 42.666667v512z" fill="#297AFF" p-id="3216"></path><path d="M539.733333 710.4h-44.8c-10.666667 0-19.2-8.533333-19.2-19.2V305.066667c0-12.8 8.533333-21.333333 21.333334-21.333334h42.666666c12.8 0 21.333333 8.533333 21.333334 21.333334v386.133333c-2.133333 10.666667-10.666667 19.2-21.333334 19.2z" fill="#297AFF" p-id="3217"></path><path d="M682.666667 556.8l-29.866667-29.866667c-8.533333-8.533333-21.333333-8.533333-29.866667 0l-104.533333 104.533334-106.666667-106.666667c-8.533333-8.533333-21.333333-8.533333-27.733333 0L354.133333 554.666667c-8.533333 8.533333-8.533333 21.333333 0 29.866666l104.533334 104.533334 36.266666 36.266666c12.8 12.8 34.133333 12.8 46.933334 0l36.266666-36.266666 104.533334-104.533334c8.533333-4.266667 8.533333-19.2 0-27.733333z" fill="#297AFF" p-id="3218"></path></svg>
