<svg t="1667964199795" class="icon" viewBox="0 0 1024 1024" version="1.1" xmlns="http://www.w3.org/2000/svg" p-id="3645" width="200" height="200"><path d="M907.776 127.488H121.856c-24.064 0-43.52 20.48-43.52 45.056v135.168c0 24.576 19.456 45.056 43.52 45.056h786.432c24.064 0 43.52-20.48 43.52-45.056V172.544c0-25.088-19.968-45.056-44.032-45.056zM202.752 256H140.288V191.488h62.464V256z m436.736 32.768h-62.464v-97.28h62.464v97.28z m124.416 0H701.44v-97.28h62.464v97.28z m125.44 0h-62.464v-97.28h62.464v97.28zM907.776 420.352H121.856c-24.064 0-43.52 20.48-43.52 45.056v135.168c0 24.576 19.456 45.056 43.52 45.056h786.432c24.064 0 43.52-20.48 43.52-45.056V465.408c0-24.576-19.968-45.056-44.032-45.056zM202.752 548.864H140.288V484.864h62.464v64z m436.736 32.768h-62.464V484.864h62.464v96.768z m124.416 0H701.44V484.864h62.464v96.768z m125.44 0h-62.464V484.864h62.464v96.768zM907.776 707.072H121.856c-24.064 0-43.52 20.48-43.52 45.056v135.168c0 24.576 19.456 45.056 43.52 45.056h786.432c24.064 0 43.52-20.48 43.52-45.056v-135.168c0-25.088-19.968-45.056-44.032-45.056zM202.752 835.584H140.288v-64.512h62.464v64.512z m436.736 32.768h-62.464v-96.768h62.464v96.768z m124.416 0H701.44v-96.768h62.464v96.768z m125.44 0h-62.464v-96.768h62.464v96.768z" fill="#297AFF" p-id="3646"></path></svg>
