<svg t="1667963941586" class="icon" viewBox="0 0 1024 1024" version="1.1" xmlns="http://www.w3.org/2000/svg" p-id="3073" width="200" height="200"><path d="M535.466667 209.066667H490.666667c-10.666667 0-19.2 8.533333-19.2 19.2v471.466666c0 12.8 8.533333 21.333333 21.333333 21.333334h42.666667c12.8 0 21.333333-8.533333 21.333333-21.333334v-469.333333c-2.133333-12.8-10.666667-21.333333-21.333333-21.333333z" fill="#297AFF" p-id="3074"></path><path d="M832 469.333333c-10.666667 0-21.333333 8.533333-21.333333 21.333334v298.666666c0 10.666667-8.533333 21.333333-21.333334 21.333334H234.666667c-10.666667 0-21.333333-8.533333-21.333334-21.333334V490.666667c0-10.666667-8.533333-21.333333-21.333333-21.333334H149.333333c-10.666667 0-21.333333 8.533333-21.333333 21.333334v384c0 10.666667 8.533333 21.333333 21.333333 21.333333h725.333334c10.666667 0 21.333333-8.533333 21.333333-21.333333V490.666667c0-10.666667-8.533333-21.333333-21.333333-21.333334h-42.666667zM706.133333 343.466667l-29.866666 29.866666c-8.533333 8.533333-21.333333 8.533333-29.866667 0l-119.466667-119.466666c-8.533333-8.533333-21.333333-8.533333-29.866666 0l-119.466667 119.466666c-8.533333 8.533333-21.333333 8.533333-29.866667 0l-29.866666-29.866666c-8.533333-8.533333-8.533333-21.333333 0-29.866667l134.4-134.4 40.533333-40.533333c4.266667-8.533333 12.8-10.666667 19.2-10.666667 6.4 0 14.933333 2.133333 19.2 8.533333l40.533333 40.533334 134.4 134.4c8.533333 8.533333 8.533333 23.466667 0 32z" fill="#297AFF" p-id="3075"></path></svg>
