<svg t="1667964058827" class="icon" viewBox="0 0 1024 1024" version="1.1" xmlns="http://www.w3.org/2000/svg" p-id="3358" width="200" height="200"><path d="M622.933333 450.133333c-14.933333 8.533333-32 8.533333-46.933333 0l-206.933333-134.4-273.066667 166.4c-2.133333 0-2.133333 2.133333-4.266667 2.133334 0 8.533333-2.133333 17.066667-2.133333 27.733333 0 91.733333 29.866667 177.066667 78.933333 247.466667V640c0-23.466667 19.2-42.666667 42.666667-42.666667s42.666667 19.2 42.666667 42.666667v206.933333c34.133333 27.733333 72.533333 49.066667 113.066666 64V469.333333c0-23.466667 19.2-42.666667 42.666667-42.666666s42.666667 19.2 42.666667 42.666666v462.933334c21.333333 2.133333 40.533333 4.266667 64 4.266666 17.066667 0 34.133333-2.133333 51.2-4.266666V661.333333c0-23.466667 19.2-42.666667 42.666666-42.666666s42.666667 19.2 42.666667 42.666666v253.866667c40.533333-12.8 78.933333-34.133333 113.066667-59.733333V554.666667c0-23.466667 19.2-42.666667 42.666666-42.666667s42.666667 19.2 42.666667 42.666667v219.733333c57.6-72.533333 91.733333-164.266667 91.733333-264.533333 0-83.2-23.466667-160-66.133333-226.133334l-253.866667 166.4z" fill="#297AFF" p-id="3359"></path><path d="M347.733333 228.266667c14.933333-8.533333 32-8.533333 44.8 0l206.933334 134.4 226.133333-145.066667C748.8 136.533333 640 85.333333 518.4 85.333333 332.8 85.333333 174.933333 204.8 115.2 371.2l232.533333-142.933333z" fill="#297AFF" p-id="3360"></path></svg>
